<svg width="32" height="26" viewBox="0 0 32 26" fill="none" xmlns="http://www.w3.org/2000/svg">
<path d="M2.5 12H16V14.25H2.5V12ZM0.25 6.375H11.5V8.625H0.25V6.375Z" fill="#D2AE82"/>
<path d="M31.6589 12.6818L28.2839 4.80675C28.1973 4.60434 28.0531 4.43182 27.8693 4.31063C27.6855 4.18943 27.4702 4.12488 27.25 4.125H23.875V1.875C23.875 1.57663 23.7565 1.29048 23.5455 1.07951C23.3345 0.868527 23.0484 0.75 22.75 0.75H4.75001V3H21.625V17.1255C21.1124 17.4232 20.6638 17.8194 20.305 18.2913C19.9463 18.7632 19.6845 19.3014 19.5348 19.875H12.4653C12.1914 18.8145 11.5403 17.8903 10.6338 17.2756C9.72725 16.6609 8.62768 16.3979 7.54114 16.5359C6.45459 16.6739 5.45569 17.2034 4.73165 18.0252C4.00761 18.8471 3.60815 19.9047 3.60815 21C3.60815 22.0953 4.00761 23.1529 4.73165 23.9748C5.45569 24.7966 6.45459 25.3261 7.54114 25.4641C8.62768 25.6021 9.72725 25.3391 10.6338 24.7244C11.5403 24.1097 12.1914 23.1855 12.4653 22.125H19.5348C19.7795 23.0905 20.3392 23.9469 21.1253 24.5586C21.9113 25.1703 22.879 25.5024 23.875 25.5024C24.8711 25.5024 25.8387 25.1703 26.6248 24.5586C27.4109 23.9469 27.9705 23.0905 28.2153 22.125H30.625C30.9234 22.125 31.2095 22.0065 31.4205 21.7955C31.6315 21.5845 31.75 21.2984 31.75 21V13.125C31.7501 12.9726 31.7191 12.8218 31.6589 12.6818ZM8.12501 23.25C7.68 23.25 7.24499 23.118 6.87498 22.8708C6.50497 22.6236 6.21658 22.2722 6.04628 21.861C5.87598 21.4499 5.83143 20.9975 5.91824 20.561C6.00506 20.1246 6.21935 19.7237 6.53402 19.409C6.84869 19.0943 7.2496 18.88 7.68606 18.7932C8.12251 18.7064 8.57491 18.751 8.98605 18.9213C9.39718 19.0916 9.74858 19.38 9.99582 19.75C10.2431 20.12 10.375 20.555 10.375 21C10.3744 21.5966 10.1372 22.1685 9.71534 22.5903C9.29351 23.0122 8.72156 23.2494 8.12501 23.25ZM23.875 6.375H26.5075L28.9195 12H23.875V6.375ZM23.875 23.25C23.43 23.25 22.995 23.118 22.625 22.8708C22.255 22.6236 21.9666 22.2722 21.7963 21.861C21.626 21.4499 21.5814 20.9975 21.6682 20.561C21.7551 20.1246 21.9694 19.7237 22.284 19.409C22.5987 19.0943 22.9996 18.88 23.4361 18.7932C23.8725 18.7064 24.3249 18.751 24.736 18.9213C25.1472 19.0916 25.4986 19.38 25.7458 19.75C25.993 20.12 26.125 20.555 26.125 21C26.1244 21.5966 25.8872 22.1685 25.4653 22.5903C25.0435 23.0122 24.4716 23.2494 23.875 23.25ZM29.5 19.875H28.2153C27.9674 18.9114 27.4069 18.0572 26.6214 17.4464C25.8359 16.8356 24.87 16.5028 23.875 16.5V14.25H29.5V19.875Z" fill="#D2AE82"/>
</svg>
