<svg width="30" height="29" viewBox="0 0 30 29" fill="none" xmlns="http://www.w3.org/2000/svg">
<path d="M27 9H18.582L20.2665 3.9495C20.5695 3.0375 20.4165 2.0265 19.854 1.2465C19.2915 0.4665 18.3795 0 17.418 0H15C14.5545 0 14.133 0.198 13.8465 0.54L6.7965 9H3C1.3455 9 0 10.3455 0 12V25.5C0 27.1545 1.3455 28.5 3 28.5H22.9605C23.5708 28.498 24.1662 28.3108 24.6678 27.9631C25.1695 27.6155 25.5538 27.1238 25.77 26.553L29.9055 15.5265C29.9683 15.3581 30.0003 15.1797 30 15V12C30 10.3455 28.6545 9 27 9ZM3 12H6V25.5H3V12ZM27 14.7285L22.9605 25.5H9V11.043L15.702 3H17.421L15.078 10.0245C15.0019 10.25 14.9807 10.4903 15.0161 10.7256C15.0515 10.961 15.1425 11.1844 15.2815 11.3776C15.4205 11.5707 15.6036 11.7279 15.8155 11.8361C16.0274 11.9444 16.262 12.0006 16.5 12H27V14.7285Z" fill="#D2AE82"/>
</svg>
