<svg width="31" height="31" viewBox="0 0 31 31" fill="none" xmlns="http://www.w3.org/2000/svg">
<g clip-path="url(#clip0_89_56)">
<path d="M7.16699 28.0889H24.5986C25.972 28.0889 27.0889 26.972 27.0889 25.5986V11.9023C27.0889 11.5721 26.9577 11.2554 26.7242 11.0219C26.4907 10.7884 26.174 10.6572 25.8437 10.6572H22.1084V9.41211C22.1084 5.97932 19.3156 3.18652 15.8828 3.18652C12.45 3.18652 9.65723 5.97932 9.65723 9.41211V10.6572H5.92187C5.59165 10.6572 5.27495 10.7884 5.04144 11.0219C4.80794 11.2554 4.67676 11.5721 4.67676 11.9023V25.5986C4.67676 26.972 5.79363 28.0889 7.16699 28.0889ZM12.1475 9.41211C12.1475 7.35269 13.8234 5.67676 15.8828 5.67676C17.9422 5.67676 19.6182 7.35269 19.6182 9.41211V10.6572H12.1475V9.41211ZM7.16699 13.1475H9.65723V15.6377H12.1475V13.1475H19.6182V15.6377H22.1084V13.1475H24.5986L24.6011 25.5986H7.16699V13.1475Z" fill="#A8A8A8"/>
<circle cx="25.2212" cy="26.2212" r="4.35791" fill="#FE8668"/>
</g>
<defs>
<clipPath id="clip0_89_56">
<rect width="29.8828" height="29.8828" fill="white" transform="translate(0.941345 0.696289)"/>
</clipPath>
</defs>
</svg>
